<mxfile host="app.diagrams.net" modified="2021-03-25T20:14:15.633Z" agent="5.0 (Windows NT 10.0; Win64; x64) AppleWebKit/537.36 (KHTML, like Gecko) Chrome/89.0.4389.90 Safari/537.36" etag="QX60GMAM3fMRFBQqylvO" version="14.5.1" type="github">
  <diagram name="Page-1" id="13e1069c-82ec-6db2-03f1-153e76fe0fe0">
    <mxGraphModel dx="460" dy="748" grid="1" gridSize="10" guides="1" tooltips="1" connect="1" arrows="1" fold="1" page="1" pageScale="1" pageWidth="1100" pageHeight="850" background="#ffffff" math="0" shadow="0">
      <root>
        <mxCell id="0" />
        <mxCell id="1" parent="0" />
        <mxCell id="SPC90-Vw6357-PJYSrUA-3" value="" style="edgeStyle=orthogonalEdgeStyle;rounded=0;orthogonalLoop=1;jettySize=auto;html=1;endArrow=none;endFill=0;dashed=1;" edge="1" parent="1" source="SPC90-Vw6357-PJYSrUA-1" target="SPC90-Vw6357-PJYSrUA-2">
          <mxGeometry relative="1" as="geometry" />
        </mxCell>
        <mxCell id="SPC90-Vw6357-PJYSrUA-1" value="Студент&lt;br&gt;" style="shape=umlActor;verticalLabelPosition=bottom;verticalAlign=top;html=1;outlineConnect=0;" vertex="1" parent="1">
          <mxGeometry x="230" y="250" width="30" height="60" as="geometry" />
        </mxCell>
        <mxCell id="SPC90-Vw6357-PJYSrUA-2" value="" style="rounded=0;whiteSpace=wrap;html=1;" vertex="1" parent="1">
          <mxGeometry x="235" y="350" width="20" height="230" as="geometry" />
        </mxCell>
        <mxCell id="SPC90-Vw6357-PJYSrUA-4" value="" style="endArrow=none;dashed=1;html=1;strokeWidth=1;entryX=0.5;entryY=1;entryDx=0;entryDy=0;jumpSize=4;" edge="1" parent="1" target="SPC90-Vw6357-PJYSrUA-2">
          <mxGeometry width="50" height="50" relative="1" as="geometry">
            <mxPoint x="245" y="600" as="sourcePoint" />
            <mxPoint x="270" y="460" as="targetPoint" />
          </mxGeometry>
        </mxCell>
        <mxCell id="SPC90-Vw6357-PJYSrUA-5" value="" style="html=1;points=[];perimeter=orthogonalPerimeter;" vertex="1" parent="1">
          <mxGeometry x="400" y="360" width="20" height="220" as="geometry" />
        </mxCell>
        <mxCell id="SPC90-Vw6357-PJYSrUA-6" value="Учебный курс" style="html=1;" vertex="1" parent="1">
          <mxGeometry x="355" y="240" width="110" height="50" as="geometry" />
        </mxCell>
      </root>
    </mxGraphModel>
  </diagram>
</mxfile>
